<?xml version="1.0" standalone="no"?>
<!DOCTYPE svg PUBLIC "-//W3C//DTD SVG 20010904//EN"
 "http://www.w3.org/TR/2001/REC-SVG-20010904/DTD/svg10.dtd">
<svg version="1.0" xmlns="http://www.w3.org/2000/svg"
 width="275.000000pt" height="183.000000pt" viewBox="0 0 275.000000 183.000000"
 preserveAspectRatio="xMidYMid meet">

<g transform="translate(0.000000,183.000000) scale(0.100000,-0.100000)"
fill="#000000" stroke="none">
<path d="M1 1575 c0 -149 4 -255 10 -255 5 0 9 5 9 11 0 5 4 8 9 4 5 -3 12 3
16 13 3 12 14 19 27 18 34 -2 32 -23 -2 -30 -19 -3 -30 -11 -28 -18 3 -7 9
-13 14 -13 5 -1 19 -6 32 -13 21 -12 22 -32 1 -32 -6 0 -7 5 -3 11 4 8 -1 9
-17 4 -13 -4 -21 -4 -17 0 11 12 -11 35 -33 35 -14 0 -19 -7 -19 -26 0 -20 4
-25 16 -20 8 3 12 2 9 -4 -3 -6 -1 -10 6 -10 9 0 9 -4 -1 -15 -6 -8 -9 -19 -5
-25 3 -5 0 -13 -9 -16 -12 -5 -15 -51 -15 -323 l-1 -318 28 3 c26 4 27 3 2 -4
-24 -8 -25 -11 -28 -107 -2 -72 1 -101 10 -107 10 -6 10 -8 1 -8 -10 0 -13
-40 -13 -165 l0 -166 410 2 c369 1 411 3 421 18 9 14 10 14 5 -2 -5 -15 2 -17
59 -16 55 1 65 4 65 19 0 10 3 27 6 37 4 12 0 9 -12 -7 -11 -14 -27 -26 -37
-27 -15 -1 -17 4 -12 25 14 55 15 72 5 72 -6 0 -8 -5 -4 -11 4 -7 1 -10 -7 -7
-9 3 -14 18 -13 38 l1 34 -19 -24 c-15 -18 -16 -25 -6 -31 18 -12 -10 -11 -37
1 l-20 9 20 1 20 1 -20 9 c-19 7 -19 8 -2 15 13 6 15 11 6 21 -6 7 -8 18 -4
25 5 8 1 9 -14 4 -16 -5 -26 -1 -36 11 -12 17 -10 44 3 42 27 -3 62 4 62 13 0
5 -6 7 -12 3 -10 -6 -10 -4 0 8 10 13 10 17 0 21 -9 4 -10 8 -2 14 5 4 10 18
10 31 0 17 -5 22 -18 19 -23 -6 -23 9 0 23 16 11 16 11 0 6 -10 -3 -18 -1 -18
4 0 6 -5 10 -11 10 -8 0 -8 -4 0 -14 8 -10 9 -16 1 -21 -5 -3 -10 -1 -10 5 0
7 -6 8 -19 1 -15 -8 -20 -7 -25 6 -4 9 -3 19 0 22 4 3 9 0 11 -6 7 -21 22 -15
16 6 -7 27 -35 36 -49 16 -7 -9 -15 -12 -18 -6 -3 5 0 11 6 14 10 3 10 8 -2
23 -14 17 -14 18 2 6 13 -11 24 -11 45 -3 26 10 26 10 4 8 -13 -1 -26 4 -28
11 -7 18 66 16 73 -2 3 -8 0 -24 -6 -36 -10 -18 -9 -21 1 -14 7 4 27 7 44 7
16 -1 23 1 15 4 -18 7 -50 42 -50 55 0 4 -8 8 -17 8 -10 0 -25 5 -33 10 -13 9
-12 13 9 30 13 11 18 20 12 20 -6 0 -11 7 -11 15 0 19 -17 19 -27 1 -6 -12
-11 -10 -20 10 -6 13 -7 24 -2 24 5 0 9 -5 9 -12 0 -6 10 -2 23 10 13 12 30
22 38 22 8 0 23 6 34 14 11 7 52 23 92 35 39 12 73 26 75 31 2 5 24 11 49 12
26 2 45 6 42 11 -2 4 2 7 11 7 14 0 76 29 86 41 3 3 28 9 55 13 28 3 51 10 53
15 3 10 34 5 77 -14 17 -7 60 -18 98 -25 37 -7 70 -16 73 -21 3 -5 18 -9 35
-9 16 0 29 -5 29 -11 0 -5 5 -7 10 -4 6 4 17 1 25 -5 8 -7 24 -10 36 -7 17 5
18 3 7 -11 -11 -13 -10 -15 10 -10 16 5 22 2 22 -10 0 -13 2 -14 9 -4 7 12 12
12 30 1 27 -17 27 -33 1 -26 -11 3 -23 1 -26 -4 -3 -5 11 -9 30 -9 20 0 36 -4
36 -10 0 -5 -7 -7 -15 -4 -8 4 -15 2 -15 -3 0 -8 36 -10 59 -4 2 1 -2 8 -9 16
-10 12 -10 19 -2 27 14 14 27 -14 18 -37 -3 -8 0 -15 7 -15 7 0 6 -4 -3 -10
-8 -5 -36 -7 -63 -4 -40 5 -46 4 -41 -10 3 -9 10 -16 16 -16 5 0 6 5 2 12 -5
8 -2 9 12 4 10 -4 24 -9 31 -10 7 -1 16 -6 20 -10 4 -5 -17 -7 -48 -4 -48 4
-55 2 -56 -14 -2 -15 7 -18 50 -19 29 -1 43 -3 32 -6 -11 -3 -26 -12 -32 -20
-11 -15 -13 -14 -19 1 -4 11 -10 13 -18 7 -6 -5 -20 -11 -31 -15 -12 -3 -9 -4
8 -2 15 2 27 1 27 -1 0 -11 -29 -32 -51 -36 -13 -2 -5 -3 19 -1 30 3 44 0 48
-10 7 -18 42 -27 47 -12 2 6 8 7 13 3 18 -17 -20 -25 -53 -12 -19 8 -35 10
-38 4 -4 -5 -2 -9 3 -9 15 0 23 -28 10 -36 -6 -4 -8 -3 -5 3 4 6 0 13 -8 17
-8 3 -15 12 -15 21 0 10 -9 15 -27 14 -25 -2 -25 -2 -5 -6 19 -4 21 -7 11 -19
-9 -11 -8 -14 5 -14 9 0 19 -7 22 -15 4 -8 14 -15 23 -16 12 0 10 -3 -6 -11
-13 -6 -23 -14 -23 -18 0 -9 -65 -4 -81 6 -7 4 -10 2 -7 -7 2 -7 21 -18 41
-22 40 -10 50 -27 16 -27 -11 0 -18 4 -15 9 3 4 -11 7 -32 6 -49 -3 -49 -3
-49 -20 0 -16 21 -27 55 -29 15 -1 30 -14 45 -41 20 -36 27 -41 72 -46 l50 -6
-48 -1 c-44 -2 -47 -3 -32 -18 8 -9 23 -13 31 -10 12 5 15 2 10 -10 -3 -8 -6
-19 -6 -22 0 -4 -5 0 -10 8 -14 21 -13 -5 0 -31 11 -20 1 -26 -17 -8 -7 7 -10
3 -10 -15 0 -19 4 -26 16 -24 9 2 19 7 22 12 4 5 10 -1 13 -12 8 -24 35 -37
50 -22 5 5 15 10 20 10 6 0 4 -5 -4 -10 -13 -9 -13 -10 1 -10 8 0 20 5 27 12
9 9 12 9 12 0 0 -9 107 -12 452 -12 248 0 448 3 445 7 -4 3 -23 6 -42 5 -24
-1 -42 5 -57 20 l-21 21 61 -6 62 -7 0 254 0 254 -55 7 c-75 9 -79 24 -5 18
l60 -6 0 632 0 631 -433 0 c-333 0 -436 -3 -446 -12 -11 -11 -12 -10 -7 0 6
10 -29 13 -183 11 -194 -1 -196 -2 -192 -39 2 -9 -4 -6 -14 8 -17 23 -38 22
-29 -3 4 -10 0 -12 -14 -8 -12 3 -28 -3 -41 -16 -27 -27 -27 -34 2 -25 21 6
21 6 5 -13 -21 -23 -24 -47 -5 -40 6 2 11 10 10 16 -4 15 8 13 31 -4 11 -8 28
-15 39 -15 10 0 16 -4 13 -8 -3 -5 -19 -7 -35 -4 -17 2 -28 8 -25 13 10 17
-12 9 -28 -10 -17 -20 -14 -26 19 -45 9 -5 11 -2 6 10 -5 13 -1 12 15 -4 26
-26 27 -32 8 -32 -16 0 -27 -23 -18 -36 10 -14 28 -15 57 -4 16 6 25 6 25 0 0
-10 -27 -18 -65 -21 -34 -2 -46 1 -41 10 7 11 -22 23 -36 14 -6 -3 -8 -1 -5 4
4 6 0 13 -8 17 -10 4 -15 -1 -15 -14 0 -11 -4 -20 -10 -20 -5 0 -10 -5 -10
-11 0 -5 4 -8 9 -5 5 3 11 -3 14 -14 3 -11 1 -23 -4 -26 -5 -3 -2 -12 6 -20
19 -20 19 -38 0 -30 -23 9 -18 -6 13 -32 26 -24 26 -24 3 -17 -19 6 -23 4 -18
-8 4 -11 0 -13 -14 -10 -10 3 -19 1 -19 -5 0 -17 25 -31 46 -26 10 3 28 -2 39
-10 11 -9 15 -16 8 -16 -6 0 -15 5 -18 10 -4 6 -12 5 -21 -4 -18 -19 -18 -30
2 -22 10 4 13 2 7 -7 -14 -22 -11 -36 5 -34 10 1 17 -2 17 -8 0 -5 -3 -9 -7
-8 -5 2 -8 -6 -8 -18 0 -14 -11 -25 -35 -35 -20 -8 -33 -19 -30 -24 4 -6 10
-8 15 -5 4 3 10 -4 13 -15 3 -11 1 -22 -4 -26 -5 -3 -2 -15 6 -27 8 -13 13
-33 10 -45 -2 -12 0 -22 6 -22 16 0 10 -18 -12 -39 -12 -11 -18 -24 -15 -29 7
-11 -19 -42 -35 -42 -6 0 -7 9 -4 20 4 12 2 20 -5 20 -8 0 -10 9 -6 25 4 15 2
25 -4 25 -6 0 -8 10 -4 24 4 16 1 25 -11 30 -14 5 -15 9 -5 21 7 8 8 15 2 15
-5 0 -9 12 -9 26 0 34 -13 45 -57 47 -33 2 -52 16 -23 18 6 0 1 5 -13 10 -20
8 -22 12 -10 19 12 8 11 10 -5 11 -11 1 -25 2 -32 2 -6 0 -9 6 -6 14 3 8 0 19
-8 24 -12 7 -11 9 1 9 9 0 22 -6 29 -12 10 -11 12 -9 9 7 -2 13 -12 21 -30 23
-14 2 -29 9 -32 17 -4 11 0 12 21 4 14 -5 28 -7 31 -4 3 3 0 5 -6 5 -7 0 -12
7 -12 15 0 8 -4 15 -10 15 -5 0 -10 9 -10 20 0 11 -4 20 -8 20 -5 0 -14 11
-20 25 -7 15 -8 25 -2 25 21 0 9 17 -21 31 -33 15 -40 36 -11 31 14 -3 13 1
-5 19 -19 19 -24 20 -38 9 -14 -12 -18 -12 -25 0 -4 7 -6 18 -4 25 3 7 -4 11
-18 11 -17 -1 -22 4 -20 17 6 36 -18 15 -29 -25 -13 -49 -27 -70 -41 -62 -5 3
-16 -2 -24 -12 -15 -18 -15 -18 -10 -1 3 10 1 27 -4 38 -8 15 -7 19 5 19 8 0
15 7 15 15 0 15 -7 18 -42 18 -11 0 -15 4 -10 11 3 6 7 15 7 20 0 5 9 12 20
17 18 7 18 8 -5 8 -14 1 -20 4 -14 9 6 4 8 16 4 27 -7 19 -7 19 -19 -4 -7 -12
-10 -29 -7 -36 3 -8 1 -17 -5 -20 -5 -4 -8 -1 -7 7 2 7 -8 14 -22 16 -14 2
-29 8 -35 14 -7 7 -3 8 13 3 18 -5 22 -3 22 15 0 16 4 20 15 16 13 -4 14 -2 5
14 -9 16 -7 24 6 38 10 9 19 16 21 14 2 -2 9 -1 16 1 6 3 3 6 -7 6 -20 1 -20
1 0 17 16 13 16 15 2 10 -10 -3 -20 -1 -23 4 -7 11 -35 2 -35 -12 0 -6 6 -8
14 -5 10 4 12 0 9 -14 -6 -21 -23 -36 -23 -20 0 6 -10 11 -22 11 -20 1 -21 2
-8 13 8 7 21 20 28 29 12 14 10 16 -12 14 -17 -2 -26 2 -26 11 0 13 -22 14
-136 11 -121 -3 -137 -5 -151 -23 -11 -15 -14 -15 -10 -3 3 9 0 19 -9 22 -8 3
-14 1 -14 -4 0 -6 -15 -10 -32 -10 -24 0 -29 3 -18 10 9 5 -47 9 -153 9 l-167
0 1 -254z m593 226 c3 -5 0 -14 -7 -19 -10 -8 -13 -6 -14 9 -2 19 11 26 21 10z
m-44 -18 c10 10 10 8 1 -11 -11 -21 -10 -22 24 -16 35 5 42 0 27 -23 -5 -7
-13 -9 -21 -3 -8 4 -20 6 -28 3 -7 -3 -16 2 -19 11 -3 9 -10 13 -15 10 -5 -3
-7 -10 -4 -15 3 -5 -2 -6 -11 -2 -13 5 -15 3 -9 -8 5 -8 1 -7 -10 3 -17 15
-17 20 -5 43 12 23 15 24 35 11 17 -11 25 -12 35 -3z m980 13 c0 -11 -19 -15
-25 -6 -3 5 1 10 9 10 9 0 16 -2 16 -4z m-1390 -30 c0 -2 -7 -6 -15 -10 -8 -3
-15 -1 -15 4 0 6 7 10 15 10 8 0 15 -2 15 -4z m500 -12 c0 -8 -5 -12 -10 -9
-6 4 -8 11 -5 16 9 14 15 11 15 -7z m38 4 c-6 -18 -28 -21 -28 -4 0 9 7 16 16
16 9 0 14 -5 12 -12z m862 2 c0 -5 -15 -9 -32 -9 l-33 1 30 8 c17 4 31 8 33 9
1 0 2 -3 2 -9z m-1330 -15 c7 -8 10 -16 6 -16 -31 -6 -51 5 -40 23 8 12 20 10
34 -7z m1258 -3 c2 -7 -2 -10 -12 -6 -9 3 -16 11 -16 16 0 13 23 5 28 -10z
m-738 -32 c0 -10 -8 -24 -17 -31 -14 -12 -16 -12 -8 0 6 11 4 13 -10 7 -12 -4
-24 0 -37 13 -25 28 -23 34 12 27 17 -3 29 -2 25 3 -3 5 4 7 15 4 11 -3 20
-13 20 -23z m-400 10 c0 -5 -2 -10 -4 -10 -3 0 -8 5 -11 10 -3 6 -1 10 4 10 6
0 11 -4 11 -10z m2030 -14 c0 -2 -8 -10 -17 -17 -16 -13 -17 -12 -4 4 13 16
21 21 21 13z m-424 -18 c4 -7 3 -8 -4 -4 -7 4 -12 2 -12 -5 0 -7 -3 -10 -6 -6
-6 5 3 27 11 27 2 0 7 -5 11 -12z m-1604 -58 c-12 -11 -20 -17 -17 -14 3 4 0
13 -6 20 -8 9 -5 11 10 7 13 -3 21 -1 21 8 0 7 3 9 7 5 4 -3 -3 -15 -15 -26z
m-130 -8 c11 -13 10 -15 -5 -9 -10 4 -22 7 -27 7 -4 0 -10 6 -13 14 -7 19 28
9 45 -12z m1528 24 c0 -3 -4 -8 -10 -11 -5 -3 -10 -1 -10 4 0 6 5 11 10 11 6
0 10 -2 10 -4z m-1650 -48 c0 -4 -4 -8 -9 -8 -6 0 -12 4 -15 8 -3 5 1 9 9 9 8
0 15 -4 15 -9z m60 -16 c0 -15 -2 -15 -10 -2 -13 20 -13 33 0 25 6 -3 10 -14
10 -23z m2556 15 c8 3 21 -3 29 -13 17 -22 19 -44 6 -44 -16 0 -61 46 -60 61
0 10 2 10 5 2 3 -7 12 -9 20 -6z m-1246 -7 c0 -5 -5 -10 -11 -10 -5 0 -7 5 -4
10 3 6 8 10 11 10 2 0 4 -4 4 -10z m-1373 -25 c5 -4 2 -5 -4 -1 -7 4 -13 2
-13 -3 0 -6 -5 -11 -11 -11 -5 0 -8 4 -5 9 4 5 0 12 -6 15 -7 2 -3 4 9 2 12
-1 26 -6 30 -11z m693 -20 c0 -8 -4 -15 -10 -15 -5 0 -10 7 -10 15 0 8 5 15
10 15 6 0 10 -7 10 -15z m-64 -8 c7 17 34 5 28 -12 -3 -8 -12 -11 -20 -8 -8 3
-14 -1 -14 -11 0 -9 -4 -16 -10 -16 -5 0 -10 15 -10 33 0 25 3 29 11 17 7 -11
12 -12 15 -3z m-626 -17 c0 -5 -5 -10 -10 -10 -6 0 -8 -10 -4 -24 4 -16 1 -25
-12 -30 -9 -4 -19 -4 -22 -1 -3 3 0 5 6 5 7 0 12 13 12 28 0 16 3 32 7 35 10
10 23 8 23 -3z m33 4 c3 -3 3 -13 0 -21 -5 -12 -7 -12 -14 -1 -15 23 -4 40 14
22z m1297 -4 c0 -5 -7 -10 -16 -10 -8 0 -12 5 -9 10 3 6 10 10 16 10 5 0 9 -4
9 -10z m-620 -20 c0 -5 -5 -10 -11 -10 -5 0 -7 5 -4 10 3 6 8 10 11 10 2 0 4
-4 4 -10z m1922 -30 c3 -16 1 -30 -4 -30 -4 0 -8 9 -8 19 0 11 -3 27 -7 37 -4
11 -3 15 4 11 6 -4 13 -20 15 -37z m-2162 26 c0 -3 -4 -8 -10 -11 -5 -3 -10
-1 -10 4 0 6 5 11 10 11 6 0 10 -2 10 -4z m180 -5 c0 -6 -4 -12 -8 -15 -5 -3
-9 1 -9 9 0 8 4 15 9 15 4 0 8 -4 8 -9z m-480 -7 c0 -8 -19 -13 -24 -6 -3 5 1
9 9 9 8 0 15 -2 15 -3z m-10 -49 c5 3 15 3 22 -1 8 -5 6 -10 -8 -14 -29 -11
-44 -1 -43 29 0 26 0 26 10 3 5 -13 13 -20 19 -17z m2344 10 c-7 -16 -24 -21
-24 -6 0 8 7 13 27 20 1 1 0 -6 -3 -14z m-1859 -13 c-3 -3 -11 0 -18 7 -9 10
-8 11 6 5 10 -3 15 -9 12 -12z m-611 -31 c8 -11 8 -13 -1 -8 -6 4 -14 3 -18
-3 -10 -16 -28 -12 -21 5 3 8 1 15 -4 15 -6 0 -10 4 -10 9 0 13 34 19 39 6 2
-5 9 -16 15 -24z m66 28 c0 -5 4 -7 10 -4 6 3 7 -1 4 -9 -5 -12 -11 -13 -25
-5 -23 12 -25 29 -4 29 8 0 15 -5 15 -11z m780 -29 c0 -5 -2 -10 -4 -10 -3 0
-8 5 -11 10 -3 6 -1 10 4 10 6 0 11 -4 11 -10z m475 -8 c-3 -3 -11 0 -18 7 -9
10 -8 11 6 5 10 -3 15 -9 12 -12z m995 -36 c0 -5 -6 -3 -13 3 -8 6 -18 7 -23
3 -4 -4 -2 1 5 11 11 14 16 15 22 5 5 -7 9 -17 9 -22z m-1020 14 c0 -5 -5 -10
-11 -10 -5 0 -7 5 -4 10 3 6 8 10 11 10 2 0 4 -4 4 -10z m1047 -12 c-3 -8 -6
-5 -6 6 -1 11 2 17 5 13 3 -3 4 -12 1 -19z m163 3 c0 -6 -4 -12 -8 -15 -5 -3
-9 1 -9 9 0 8 4 15 9 15 4 0 8 -4 8 -9z m-2440 -16 c0 6 7 1 15 -9 8 -11 14
-31 14 -45 -1 -17 -3 -20 -6 -8 -2 9 -13 17 -24 17 -15 0 -19 7 -19 33 0 24 3
28 10 17 5 -8 10 -10 10 -5z m2370 5 c0 -5 -5 -10 -11 -10 -5 0 -7 5 -4 10 3
6 8 10 11 10 2 0 4 -4 4 -10z m171 -27 c-8 -15 -10 -15 -11 -2 0 17 10 32 18
25 2 -3 -1 -13 -7 -23z m-2587 2 c-7 -16 -24 -21 -24 -6 0 8 7 13 27 20 1 1 0
-6 -3 -14z m546 -4 c0 -6 -4 -13 -10 -16 -5 -3 -10 1 -10 9 0 9 5 16 10 16 6
0 10 -4 10 -9z m-350 -5 c0 -2 -7 -7 -16 -10 -8 -3 -12 -2 -9 4 6 10 25 14 25
6z m2134 -11 c3 -8 1 -15 -4 -15 -6 0 -10 7 -10 15 0 8 2 15 4 15 2 0 6 -7 10
-15z m-1474 -34 c0 -5 -7 -11 -14 -14 -10 -4 -13 -1 -9 9 6 15 23 19 23 5z
m-802 -36 c-3 -3 -9 2 -12 12 -6 14 -5 15 5 6 7 -7 10 -15 7 -18z m362 15 c8
-5 11 -12 7 -16 -4 -4 -15 0 -24 9 -18 18 -8 23 17 7z m-450 -44 c0 -2 -7 -7
-16 -10 -8 -3 -12 -2 -9 4 6 10 25 14 25 6z m-55 -36 c-3 -5 -13 -10 -21 -10
-8 0 -12 5 -9 10 3 6 13 10 21 10 8 0 12 -4 9 -10z m1195 -26 c0 -8 -4 -12
-10 -9 -5 3 -10 10 -10 16 0 5 5 9 10 9 6 0 10 -7 10 -16z m587 -20 c-3 -3
-12 -4 -19 -1 -8 3 -5 6 6 6 11 1 17 -2 13 -5z m-1722 -153 c-12 -21 -33 1
-33 36 l0 36 20 -31 c11 -17 17 -36 13 -41z m36 52 c13 -16 12 -17 -3 -4 -15
11 -18 11 -18 0 0 -8 9 -20 20 -27 24 -15 26 -28 4 -36 -8 -3 -13 -2 -10 3 3
5 -1 14 -9 21 -16 13 -21 60 -6 60 5 0 15 -8 22 -17z m-114 -85 c-3 -8 -6 -5
-6 6 -1 11 2 17 5 13 3 -3 4 -12 1 -19z m2668 12 c3 -6 -1 -7 -9 -4 -18 7 -21
14 -7 14 6 0 13 -4 16 -10z m-2572 -13 c4 3 7 1 7 -5 0 -7 -8 -12 -18 -12 -10
0 -19 7 -19 15 0 10 4 12 12 5 7 -5 15 -7 18 -3z m34 -2 c0 -8 -4 -15 -9 -15
-10 0 -11 14 -1 23 9 10 10 9 10 -8z m2511 -50 c-3 -3 -9 2 -12 12 -6 14 -5
15 5 6 7 -7 10 -15 7 -18z m-88 -39 c0 -2 -7 -6 -15 -10 -8 -3 -15 -1 -15 4 0
6 7 10 15 10 8 0 15 -2 15 -4z m-1330 -16 c0 -5 -5 -10 -11 -10 -5 0 -7 5 -4
10 3 6 8 10 11 10 2 0 4 -4 4 -10z m-1100 -10 c0 -5 -7 -10 -16 -10 -8 0 -12
5 -9 10 3 6 10 10 16 10 5 0 9 -4 9 -10z m7 -45 c0 -8 -6 -15 -13 -15 -8 0
-11 6 -8 15 4 8 9 15 13 15 4 0 8 -7 8 -15z m940 -11 c-3 -3 -12 -4 -19 -1 -8
3 -5 6 6 6 11 1 17 -2 13 -5z m570 -11 c-9 -2 -15 -9 -12 -14 7 -11 -1 -11
-35 -2 l-25 7 30 7 c34 8 70 9 42 2z m-1522 -12 c3 -5 1 -12 -5 -16 -5 -3 -10
1 -10 9 0 18 6 21 15 7z m842 3 c-3 -3 -12 -4 -19 -1 -8 3 -5 6 6 6 11 1 17
-2 13 -5z m-100 -20 c-3 -3 -12 -4 -19 -1 -8 3 -5 6 6 6 11 1 17 -2 13 -5z
m873 -5 c0 -6 11 -8 28 -4 21 4 32 1 42 -12 12 -15 12 -16 0 -5 -17 14 -44 16
-35 2 4 -6 -13 -3 -37 6 -55 22 -57 24 -25 24 15 0 27 -5 27 -11z m170 -10
c18 -11 -55 0 -85 12 -13 6 -4 7 25 3 25 -3 52 -10 60 -15z m-1087 4 c-7 -2
-19 -2 -25 0 -7 3 -2 5 12 5 14 0 19 -2 13 -5z m-103 -19 c-35 -8 -69 -12 -75
-10 -5 2 0 5 13 5 12 1 22 4 22 9 0 4 24 8 53 9 l52 1 -65 -14z m1150 -4 c0
-5 -5 -10 -11 -10 -5 0 -7 5 -4 10 3 6 8 10 11 10 2 0 4 -4 4 -10z m130 -16
c0 -8 -4 -12 -10 -9 -5 3 -10 10 -10 16 0 5 5 9 10 9 6 0 10 -7 10 -16z m567
10 c-3 -3 -12 -4 -19 -1 -8 3 -5 6 6 6 11 1 17 -2 13 -5z m-1949 -11 c-10 -2
-26 -2 -35 0 -10 3 -2 5 17 5 19 0 27 -2 18 -5z m-61 -9 c-3 -3 -12 -4 -19 -1
-8 3 -5 6 6 6 11 1 17 -2 13 -5z m-44 -11 c-7 -2 -19 -2 -25 0 -7 3 -2 5 12 5
14 0 19 -2 13 -5z m1517 -24 c0 -5 -4 -9 -10 -9 -5 0 -10 5 -10 10 0 6 -9 10
-20 10 -11 0 -20 4 -20 9 0 6 12 6 30 0 17 -6 30 -15 30 -20z m-1605 6 c-27
-7 -61 -13 -75 -13 -14 0 0 6 30 13 72 17 110 16 45 0z m1632 0 c0 -8 -4 -15
-9 -15 -10 0 -11 14 -1 23 9 10 10 9 10 -8z m-212 -15 c-3 -5 -10 -10 -16 -10
-5 0 -9 5 -9 10 0 6 7 10 16 10 8 0 12 -4 9 -10z m255 0 c0 -5 -2 -10 -4 -10
-3 0 -8 5 -11 10 -3 6 -1 10 4 10 6 0 11 -4 11 -10z m-1800 -10 c-14 -4 -34
-8 -45 -8 -16 0 -15 2 5 8 14 4 34 8 45 8 16 0 15 -2 -5 -8z m1620 0 c0 -5 -5
-10 -11 -10 -5 0 -7 5 -4 10 3 6 8 10 11 10 2 0 4 -4 4 -10z m-43 -6 c-3 -3
-12 -4 -19 -1 -8 3 -5 6 6 6 11 1 17 -2 13 -5z m-1689 -19 c-46 -12 -152 -28
-133 -20 17 8 139 33 160 33 11 0 -1 -6 -27 -13z m1652 -2 c0 -15 -2 -16 -10
-3 -8 12 -10 12 -16 -3 -3 -9 -11 -17 -17 -17 -5 0 -2 9 8 20 22 25 35 26 35
3z m297 11 c-3 -3 -12 -4 -19 -1 -8 3 -5 6 6 6 11 1 17 -2 13 -5z m-202 -18
c-11 -7 -27 -13 -35 -13 -8 0 -31 -3 -50 -7 l-35 -8 35 21 c19 11 51 20 70 20
32 1 33 0 15 -13z m125 -1 c-29 -17 -50 -19 -50 -6 0 10 18 15 55 18 17 2 16
0 -5 -12z m245 5 c3 -6 -4 -10 -17 -10 -18 0 -20 2 -8 10 19 12 18 12 25 0z
m-1920 -20 c-3 -5 -10 -10 -16 -10 -5 0 -9 5 -9 10 0 6 7 10 16 10 8 0 12 -4
9 -10z m1675 -10 c0 -5 -8 -10 -17 -10 -15 0 -16 2 -3 10 19 12 20 12 20 0z
m-277 -7 c-7 -2 -21 -2 -30 0 -10 3 -4 5 12 5 17 0 24 -2 18 -5z m131 -7 c-10
-8 -21 -12 -24 -10 -5 6 21 24 34 24 6 0 1 -6 -10 -14z m66 -2 c0 -2 -7 -4
-15 -4 -8 0 -15 4 -15 10 0 5 7 7 15 4 8 -4 15 -8 15 -10z m287 10 c-3 -3 -12
-4 -19 -1 -8 3 -5 6 6 6 11 1 17 -2 13 -5z m-434 -10 c14 -14 -6 -34 -29 -28
-15 4 -24 2 -24 -5 0 -6 -8 -11 -17 -11 -14 0 -13 3 6 21 12 11 29 18 37 15 9
-3 12 -1 9 4 -7 11 8 14 18 4z m-1433 -8 c0 -3 -4 -8 -10 -11 -5 -3 -10 -1
-10 4 0 6 5 11 10 11 6 0 10 -2 10 -4z m2225 -5 c3 -5 0 -13 -6 -17 -7 -4 -9
-3 -5 4 3 5 0 13 -6 15 -9 4 -10 6 -1 6 6 1 14 -3 18 -8z m45 5 c0 -2 -7 -6
-15 -10 -8 -3 -15 -1 -15 4 0 6 7 10 15 10 8 0 15 -2 15 -4z m-797 -52 c-3 -9
-9 -11 -12 -6 -3 5 -15 12 -26 15 -13 3 -9 5 12 6 26 1 31 -2 26 -15z m260
-21 c-7 -2 -21 -2 -30 0 -10 3 -4 5 12 5 17 0 24 -2 18 -5z m-1520 -10 c-7 -2
-19 -2 -25 0 -7 3 -2 5 12 5 14 0 19 -2 13 -5z m54 1 c-3 -3 -12 -4 -19 -1 -8
3 -5 6 6 6 11 1 17 -2 13 -5z m1186 -21 c-13 -2 -33 -2 -45 0 -13 2 -3 4 22 4
25 0 35 -2 23 -4z m104 1 c-3 -3 -12 -4 -19 -1 -8 3 -5 6 6 6 11 1 17 -2 13
-5z m-1277 -36 c0 -6 -6 -5 -15 2 -8 7 -15 14 -15 16 0 2 7 1 15 -2 8 -4 15
-11 15 -16z m1397 6 c-3 -3 -12 -4 -19 -1 -8 3 -5 6 6 6 11 1 17 -2 13 -5z
m499 -19 c-13 -10 -15 -15 -6 -15 7 0 11 -2 8 -5 -3 -3 -18 1 -33 9 l-28 14
29 5 c16 2 34 5 39 5 6 1 1 -5 -9 -13z m-809 -18 c-2 -6 -19 -12 -38 -13 -19
-1 -28 1 -21 3 6 3 10 8 7 12 -2 5 9 8 26 9 19 0 29 -4 26 -11z m46 -4 c-7 -2
-19 -2 -25 0 -7 3 -2 5 12 5 14 0 19 -2 13 -5z m92 -4 c10 -15 -1 -23 -20 -15
-9 3 -13 10 -10 16 8 13 22 13 30 -1z m165 -9 c0 -5 -4 -10 -10 -10 -5 0 -10
5 -10 10 0 6 5 10 10 10 6 0 10 -4 10 -10z m-1300 -26 c0 -2 -7 -4 -15 -4 -8
0 -15 4 -15 10 0 5 7 7 15 4 8 -4 15 -8 15 -10z m1395 6 c3 -5 -9 -9 -30 -8
-19 1 -35 5 -35 10 0 11 57 10 65 -2z m-480 -18 c-3 -3 -11 0 -18 7 -9 10 -8
11 6 5 10 -3 15 -9 12 -12z m65 4 c0 -3 -4 -8 -10 -11 -5 -3 -10 -1 -10 4 0 6
5 11 10 11 6 0 10 -2 10 -4z m-165 -26 c-3 -5 -10 -10 -16 -10 -5 0 -9 5 -9
10 0 6 7 10 16 10 8 0 12 -4 9 -10z m992 -14 c3 -3 -5 -6 -20 -6 -14 0 -28 4
-31 9 -7 10 41 8 51 -3z m-891 -23 c-6 -6 -36 9 -36 18 0 5 9 4 20 -3 10 -7
18 -14 16 -15z m739 18 c3 -5 0 -13 -6 -17 -7 -4 -9 -3 -5 4 3 5 0 13 -6 15
-9 4 -10 6 -1 6 6 1 14 -3 18 -8z m-529 -27 c-3 -9 -6 -22 -6 -30 0 -8 -7 -14
-15 -14 -10 0 -14 7 -11 23 3 12 5 25 5 30 1 4 8 7 17 7 11 0 14 -5 10 -16z
m-236 -4 c0 -5 -2 -10 -4 -10 -3 0 -8 5 -11 10 -3 6 -1 10 4 10 6 0 11 -4 11
-10z m966 0 c8 0 14 -7 14 -15 0 -20 -58 -11 -80 12 -14 14 -12 15 19 9 18 -3
40 -6 47 -6z m-436 -35 c10 -12 10 -15 -3 -15 -25 0 -47 11 -41 21 8 14 30 11
44 -6z m-1410 -25 c0 -4 -8 -7 -17 -5 -10 2 -20 4 -23 4 -3 1 2 5 10 10 15 10
30 6 30 -9z m1173 13 c-7 -2 -21 -2 -30 0 -10 3 -4 5 12 5 17 0 24 -2 18 -5z
m-1190 -26 c3 2 8 -1 12 -8 6 -9 0 -10 -21 -5 -23 6 -27 5 -16 -5 15 -16 16
-29 1 -29 -5 0 -7 5 -4 10 3 6 1 10 -4 10 -6 0 -11 -12 -12 -27 -1 -27 -1 -27
-10 5 -5 17 -14 32 -20 32 -6 0 -7 -6 -3 -12 5 -10 4 -10 -6 -1 -23 22 5 42
45 33 19 -4 36 -6 38 -3z m1557 -6 c0 -4 -11 -6 -25 -3 -14 2 -25 6 -25 8 0 2
11 4 25 4 14 0 25 -4 25 -9z m260 -11 c-20 -13 -50 -13 -50 0 0 6 15 10 33 10
24 0 28 -3 17 -10z m-630 -10 c0 -5 -4 -10 -10 -10 -5 0 -10 5 -10 10 0 6 5
10 10 10 6 0 10 -4 10 -10z m745 0 c8 -13 -15 -13 -35 0 -12 8 -11 10 7 10 12
0 25 -4 28 -10z m-300 -20 c16 -7 13 -9 -17 -9 -21 -1 -38 4 -38 9 0 12 27 12
55 0z m-1575 -9 c0 -8 -47 -21 -78 -21 -23 0 -2 17 28 23 43 7 50 7 50 -2z
m920 5 c0 -3 -4 -8 -10 -11 -5 -3 -10 -1 -10 4 0 6 5 11 10 11 6 0 10 -2 10
-4z m665 -26 c-4 -6 -11 -7 -17 -4 -6 4 -14 0 -19 -7 -7 -11 -9 -10 -9 4 0 12
8 17 26 17 14 0 23 -4 19 -10z m193 -15 c3 -3 -25 -5 -61 -5 -38 0 -67 4 -67
10 0 10 118 6 128 -5z m-428 -5 c0 -5 -16 -10 -35 -10 -19 0 -35 5 -35 10 0 6
16 10 35 10 19 0 35 -4 35 -10z m165 0 c17 -6 23 -14 19 -22 -4 -7 -9 -8 -11
-2 -2 5 -20 8 -41 6 -26 -3 -42 1 -51 12 -12 14 -9 16 22 16 20 0 48 -4 62
-10z m-1594 -27 c-8 -15 -10 -15 -11 -2 0 17 10 32 18 25 2 -3 -1 -13 -7 -23z
m1819 7 c0 -5 -10 -10 -22 -10 -19 0 -20 2 -8 10 19 13 30 13 30 0z"/>
<path d="M1060 1517 c0 -8 -8 -18 -17 -20 -17 -4 -17 -5 0 -6 18 -1 35 25 23
36 -3 4 -6 -1 -6 -10z"/>
<path d="M1090 1500 c-9 -6 -10 -10 -3 -10 6 0 15 5 18 10 8 12 4 12 -15 0z"/>
<path d="M1078 1433 c7 -3 16 -2 19 1 4 3 -2 6 -13 5 -11 0 -14 -3 -6 -6z"/>
<path d="M1578 683 c7 -3 16 -2 19 1 4 3 -2 6 -13 5 -11 0 -14 -3 -6 -6z"/>
<path d="M1668 663 c7 -3 16 -2 19 1 4 3 -2 6 -13 5 -11 0 -14 -3 -6 -6z"/>
<path d="M1605 650 c3 -5 14 -10 23 -10 15 0 15 2 2 10 -20 13 -33 13 -25 0z"/>
<path d="M1035 630 c3 -5 8 -10 11 -10 2 0 4 5 4 10 0 6 -5 10 -11 10 -5 0 -7
-4 -4 -10z"/>
<path d="M1464 614 c3 -8 6 -20 6 -25 0 -5 5 -9 10 -9 16 0 11 37 -6 44 -12 5
-15 2 -10 -10z"/>
<path d="M1605 620 c-3 -6 1 -7 9 -4 18 7 21 14 7 14 -6 0 -13 -4 -16 -10z"/>
<path d="M1707 619 c7 -7 15 -10 18 -7 3 3 -2 9 -12 12 -14 6 -15 5 -6 -5z"/>
<path d="M773 613 c-26 -10 -12 -23 24 -23 35 0 36 1 17 15 -21 16 -23 16 -41
8z"/>
<path d="M995 611 c-6 -11 9 -23 19 -14 9 9 7 23 -3 23 -6 0 -12 -4 -16 -9z"/>
<path d="M1105 610 c3 -5 16 -10 28 -9 21 0 21 1 2 9 -28 12 -37 12 -30 0z"/>
<path d="M1240 610 c-12 -8 -11 -10 8 -10 12 0 22 5 22 10 0 13 -11 13 -30 0z"/>
<path d="M1380 600 c-12 -7 -10 -9 8 -7 12 0 22 5 22 9 0 11 -12 10 -30 -2z"/>
<path d="M1670 591 c-13 -26 -13 -48 0 -35 11 11 22 54 15 54 -2 0 -9 -9 -15
-19z"/>
<path d="M1630 576 c0 -8 -6 -17 -12 -19 -7 -3 -4 -6 7 -6 17 -1 17 -3 5 -11
-13 -8 -13 -10 1 -10 11 0 16 9 16 30 0 17 -4 30 -9 30 -4 0 -8 -6 -8 -14z"/>
<path d="M920 570 c0 -5 5 -10 10 -10 6 0 10 5 10 10 0 6 -4 10 -10 10 -5 0
-10 -4 -10 -10z"/>
<path d="M1483 563 c9 -2 17 -14 18 -26 0 -12 3 -16 6 -10 3 9 10 9 28 -3 15
-10 25 -12 30 -5 3 7 -2 11 -14 11 -11 0 -25 9 -31 20 -6 12 -20 20 -33 19
-17 -1 -18 -2 -4 -6z"/>
<path d="M1265 540 c3 -5 13 -10 21 -10 8 0 12 5 9 10 -3 6 -13 10 -21 10 -8
0 -12 -4 -9 -10z"/>
<path d="M1668 513 c7 -3 16 -2 19 1 4 3 -2 6 -13 5 -11 0 -14 -3 -6 -6z"/>
<path d="M1057 503 c-12 -12 -7 -22 8 -17 8 4 15 10 15 15 0 11 -14 12 -23 2z"/>
<path d="M1627 495 c-4 -8 -2 -17 3 -20 6 -4 10 3 10 14 0 25 -6 27 -13 6z"/>
<path d="M840 484 c-8 -9 -10 -18 -4 -24 6 -6 14 -2 22 10 14 23 -1 36 -18 14z"/>
<path d="M1160 490 c0 -5 5 -10 10 -10 6 0 10 5 10 10 0 6 -4 10 -10 10 -5 0
-10 -4 -10 -10z"/>
<path d="M1005 470 c-3 -5 -1 -10 4 -10 6 0 11 5 11 10 0 6 -2 10 -4 10 -3 0
-8 -4 -11 -10z"/>
<path d="M1215 469 c-16 -6 -14 -8 13 -8 33 -1 41 4 20 12 -7 2 -22 1 -33 -4z"/>
<path d="M1545 460 c-3 -5 1 -10 10 -10 9 0 13 5 10 10 -3 6 -8 10 -10 10 -2
0 -7 -4 -10 -10z"/>
<path d="M1423 418 c1 -21 5 -38 10 -38 9 0 8 17 -3 50 -7 21 -8 20 -7 -12z"/>
<path d="M1127 426 c-7 -8 -25 -16 -38 -19 -21 -4 -20 -4 6 -6 19 -1 37 6 48
19 19 23 6 28 -16 6z"/>
<path d="M842 403 c12 -15 32 -18 23 -4 -3 5 3 12 12 14 10 2 4 4 -14 3 -24
-1 -29 -4 -21 -13z"/>
<path d="M933 395 c-16 -17 -4 -26 25 -19 12 4 19 11 15 20 -7 18 -24 17 -40
-1z"/>
<path d="M1150 400 c-13 -8 -12 -10 3 -10 9 0 17 5 17 10 0 12 -1 12 -20 0z"/>
<path d="M1057 375 c-4 -8 -3 -16 1 -19 13 -8 35 11 28 23 -10 15 -23 14 -29
-4z"/>
<path d="M1664 373 c2 -10 6 -17 10 -16 15 3 16 11 2 22 -12 10 -14 9 -12 -6z"/>
<path d="M1225 370 c-3 -5 -2 -10 4 -10 5 0 13 5 16 10 3 6 2 10 -4 10 -5 0
-13 -4 -16 -10z"/>
<path d="M1441 365 c5 -18 -13 -58 -20 -46 -4 6 -7 -5 -7 -24 0 -19 3 -35 7
-35 3 0 4 -11 2 -24 -6 -27 12 -44 21 -20 4 10 2 13 -7 8 -8 -5 -8 -2 2 9 7 9
17 14 22 11 5 -3 9 0 9 5 0 6 7 11 16 11 8 0 13 4 9 9 -3 5 2 16 10 25 8 8 12
17 7 20 -12 7 -33 -9 -36 -29 -3 -21 -26 -34 -26 -15 0 6 -4 8 -10 5 -5 -3
-10 -2 -10 3 0 5 10 14 23 21 12 6 14 9 5 7 -21 -6 -22 -2 -7 26 8 15 8 23 -1
32 -6 6 -10 7 -9 1z"/>
<path d="M1635 360 c3 -5 8 -10 11 -10 2 0 4 5 4 10 0 6 -5 10 -11 10 -5 0 -7
-4 -4 -10z"/>
<path d="M889 328 c11 -15 11 -18 1 -18 -8 0 -11 -2 -9 -5 3 -2 18 0 35 4 21
7 23 10 9 10 -12 1 -27 7 -35 14 -12 10 -12 9 -1 -5z"/>
<path d="M1258 333 c7 -3 16 -2 19 1 4 3 -2 6 -13 5 -11 0 -14 -3 -6 -6z"/>
<path d="M980 320 c0 -5 11 -10 24 -10 14 0 28 5 31 10 4 6 -7 10 -24 10 -17
0 -31 -4 -31 -10z"/>
<path d="M1308 313 c7 -3 16 -2 19 1 4 3 -2 6 -13 5 -11 0 -14 -3 -6 -6z"/>
<path d="M883 290 c-13 -5 -23 -14 -23 -20 0 -20 32 -23 63 -6 24 12 26 15 8
10 -19 -5 -23 -3 -18 10 7 18 2 19 -30 6z"/>
<path d="M1189 273 c-12 -15 -12 -16 4 -10 10 4 23 7 28 7 5 0 9 5 9 10 0 16
-26 12 -41 -7z"/>
<path d="M1517 253 c-23 -4 -28 -9 -24 -24 4 -15 2 -17 -12 -10 -13 7 -20 5
-29 -10 -7 -10 -19 -19 -28 -19 -14 0 -14 -2 0 -16 9 -8 14 -19 11 -24 -3 -5
0 -12 6 -16 8 -4 9 -3 5 4 -4 7 -3 12 3 12 20 0 20 -18 1 -35 -11 -10 -17 -23
-13 -28 4 -6 9 -27 13 -47 l5 -35 65 -3 c56 -2 67 0 77 17 11 17 10 19 -2 15
-21 -8 -45 44 -26 56 10 6 8 9 -8 15 -11 3 -25 3 -31 0 -5 -3 -10 -2 -10 3 0
5 9 12 21 15 27 7 20 28 -14 45 -27 13 -36 32 -16 32 6 0 8 7 5 16 -4 11 1 18
14 21 11 3 20 9 20 14 0 5 -1 8 -2 8 -2 -1 -16 -4 -31 -6z m-27 -68 c0 -2 -9
-3 -19 -2 -11 0 -18 5 -15 9 4 6 34 0 34 -7z m-1 -27 c11 -10 13 -10 7 0 -4 6
-3 12 2 12 14 0 34 -27 25 -33 -9 -6 -73 19 -73 28 0 10 26 5 39 -7z m31 -58
c15 -16 25 -30 21 -30 -12 0 -10 -40 2 -40 7 0 3 -6 -7 -12 -16 -9 -22 -7 -33
8 -12 17 -12 20 4 24 10 3 19 11 21 19 2 9 -3 11 -13 7 -9 -3 -24 0 -35 6 -14
9 -16 16 -9 30 13 24 16 23 49 -12z"/>
<path d="M1480 105 c0 -8 5 -15 10 -15 6 0 10 7 10 15 0 8 -4 15 -10 15 -5 0
-10 -7 -10 -15z"/>
<path d="M840 240 c-12 -7 -10 -9 7 -7 12 0 19 5 17 9 -6 10 -6 10 -24 -2z"/>
<path d="M782 224 c9 -9 21 -13 27 -10 20 13 11 26 -16 26 -25 0 -26 -1 -11
-16z"/>
<path d="M1245 230 c-3 -5 -1 -10 4 -10 6 0 11 5 11 10 0 6 -2 10 -4 10 -3 0
-8 -4 -11 -10z"/>
<path d="M1181 220 c10 -7 49 -2 49 5 0 2 -14 3 -31 3 -17 -1 -25 -4 -18 -8z"/>
<path d="M1540 210 c-13 -8 -12 -10 3 -10 9 0 17 5 17 10 0 12 -1 12 -20 0z"/>
<path d="M1116 195 c-16 -12 -17 -15 -4 -15 9 0 18 7 22 15 7 18 6 18 -18 0z"/>
<path d="M1185 194 c-7 -8 -18 -14 -23 -14 -16 0 -72 -34 -72 -44 0 -5 6 -4
13 1 14 12 67 23 64 14 -1 -3 3 -7 8 -9 6 -2 13 -12 17 -23 7 -19 28 -27 28
-10 0 5 12 12 26 15 35 9 23 20 -21 18 -19 -1 -37 3 -41 9 -4 7 6 9 30 6 34
-5 36 -3 34 22 -1 20 -8 26 -25 27 -13 1 -30 -4 -38 -12z m35 -14 c-29 -8 -40
-3 -21 10 8 4 21 5 30 2 12 -5 10 -8 -9 -12z"/>
<path d="M957 139 c9 -9 9 -16 2 -25 -7 -8 -7 -14 1 -19 5 -3 10 -1 10 4 0 6
5 11 11 11 6 0 8 -9 4 -22 -5 -18 -4 -19 4 -8 13 19 16 15 28 -40 l11 -45 -3
48 c-2 37 1 47 11 43 8 -3 14 -1 14 5 0 6 9 8 20 4 11 -3 20 -2 20 3 0 16 -30
23 -66 16 -19 -3 -34 -2 -34 2 0 5 -10 15 -22 23 -17 10 -20 10 -11 0z"/>
<path d="M1295 130 c4 -6 11 -8 16 -5 14 9 11 15 -7 15 -8 0 -12 -5 -9 -10z"/>
<path d="M1113 123 c-18 -6 -16 -33 1 -33 8 0 17 4 20 8 7 12 -7 30 -21 25z"/>
<path d="M1155 78 c4 -24 11 -46 17 -49 6 -4 7 -12 4 -18 -4 -6 -2 -11 3 -11
6 0 11 3 12 8 2 22 8 45 14 50 3 4 4 -8 0 -26 -4 -26 -2 -32 13 -32 14 0 19 7
19 30 0 17 -5 30 -11 30 -6 0 -5 5 2 12 19 19 14 25 -18 20 -16 -2 -28 -7 -26
-11 2 -3 -1 -15 -5 -26 -7 -14 -8 -8 -5 23 3 32 1 42 -10 42 -12 0 -14 -9 -9
-42z"/>
<path d="M1051 66 c-8 -10 -9 -16 -1 -21 5 -3 10 1 10 9 0 10 9 16 25 16 19 0
25 -5 24 -22 0 -13 -3 -17 -6 -10 -2 6 -12 12 -21 11 -11 0 -12 -2 -4 -6 6 -2
12 -11 12 -18 0 -7 -6 -16 -12 -18 -7 -3 1 -6 19 -6 25 -1 31 2 27 14 -5 11
-2 13 10 9 9 -3 16 -11 16 -17 0 -6 3 -8 6 -4 3 3 2 12 -2 19 -5 7 -9 18 -10
23 0 6 -2 15 -2 21 -3 16 -77 17 -91 0z"/>
<path d="M970 20 c0 -26 6 -26 13 0 3 11 1 20 -4 20 -5 0 -9 -9 -9 -20z"/>
<path d="M1045 10 c3 -5 8 -10 11 -10 2 0 4 5 4 10 0 6 -5 10 -11 10 -5 0 -7
-4 -4 -10z"/>
</g>
</svg>
